<?xml version="1.0" encoding="utf-8"?>
<!-- Generator: Adobe Illustrator 22.0.0, SVG Export Plug-In . SVG Version: 6.00 Build 0)  -->
<svg version="1.1" id="Layer_1" xmlns="http://www.w3.org/2000/svg" xmlns:xlink="http://www.w3.org/1999/xlink" x="0px" y="0px"
	 width="373.6px" height="72.2px" viewBox="0 0 373.6 72.2" enable-background="new 0 0 373.6 72.2" xml:space="preserve">
<g id="Artwork_1_1_">
	<g>
		<defs>
			<rect id="SVGID_1_" x="9.6" y="14.6" width="358.4" height="44.2"/>
		</defs>
		<clipPath id="SVGID_2_">
			<use xlink:href="#SVGID_1_"  overflow="visible"/>
		</clipPath>
		<polygon clip-path="url(#SVGID_2_)" fill="#022e54" points="93.3,24.9 87.5,24.9 87.5,51.4 108.8,51.4 108.8,46.4 93.3,46.4 		"/>
		<g clip-path="url(#SVGID_2_)">
			<defs>
				<rect id="SVGID_3_" x="9.6" y="14.6" width="358.4" height="44.2"/>
			</defs>
			<clipPath id="SVGID_4_">
				<use xlink:href="#SVGID_3_"  overflow="visible"/>
			</clipPath>
			<path clip-path="url(#SVGID_4_)" fill="#022e54" d="M126.1,24.1c-8.4,0-14.9,6.3-14.9,14c0,7.9,6.6,14.1,14.9,14.1
				s15.1-6.2,15.1-14.1C141.2,30.4,134.4,24.1,126.1,24.1 M126.1,47.2c-5,0-8.9-4.1-8.9-9.1c0-4.9,3.9-9,8.9-9c5.1,0,9,4.1,9,9
				C135.1,43.1,131.1,47.2,126.1,47.2"/>
			<polygon clip-path="url(#SVGID_4_)" fill="#022e54" points="166.1,41.3 166.1,41.3 152.6,24.9 147.6,24.9 147.6,51.4 153.4,51.4 
				153.4,35 153.5,35 166.9,51.4 171.9,51.4 171.9,24.9 166.1,24.9 			"/>
			<path clip-path="url(#SVGID_4_)" fill="#022e54" d="M192.2,40.9h8v4.5c-1.7,1.1-4.3,1.8-6.7,1.8c-5.9,0-9-4.4-9-9
				c0-4.9,3.5-9,8.6-9c2.8,0,6.4,1.2,8.7,3.3l3.8-3.6c-3.8-3.1-8.4-4.7-12.6-4.7c-8.2,0-14.6,6.3-14.6,14c0,7.8,6.3,14,14.8,14
				c4.1,0,8.9-1.6,12.4-4.1V36.1h-13.4V40.9z"/>
			<path clip-path="url(#SVGID_4_)" fill="#022e54" d="M234.8,36.7c1.9-1,3.3-3,3.3-5.3c0-1.5-0.6-2.9-1.7-4
				c-1.5-1.5-3.8-2.6-7.1-2.6h-15.8v26.4h16.3c3.6,0,5.6-0.8,7.2-2.4c1.7-1.6,2.5-3.6,2.5-5.7C239.5,40.2,237.9,37.8,234.8,36.7
				 M219.3,29.7h9.3c1.3,0,2.1,0.3,2.6,0.9c0.5,0.5,0.8,1.1,0.8,1.9c0,0.8-0.3,1.6-0.9,2.1c-0.6,0.6-1.5,0.8-2.6,0.8h-9.3V29.7z
				 M232.5,45.6c-0.7,0.6-1.7,1-2.9,1h-10.3v-6.7h10.3c1.3,0,2.2,0.4,2.9,1.1c0.6,0.6,0.9,1.4,0.9,2.2
				C233.5,44.1,233.1,45,232.5,45.6"/>
			<path clip-path="url(#SVGID_4_)" fill="#022e54" d="M259.2,24.1c-8.4,0-14.9,6.3-14.9,14c0,7.9,6.6,14.1,14.9,14.1
				c8.4,0,15.1-6.2,15.1-14.1C274.3,30.4,267.6,24.1,259.2,24.1 M259.2,47.2c-5,0-8.9-4.1-8.9-9.1c0-4.9,3.9-9,8.9-9
				c5.1,0,9,4.1,9,9C268.3,43.1,264.3,47.2,259.2,47.2"/>
			<path clip-path="url(#SVGID_4_)" fill="#022e54" d="M288.1,24.9l-12.3,26.4h6.1l2.4-5.6h12.2l2.4,5.6h6.4l-12.3-26.4H288.1z
				 M290.3,31.8h0.2l3.9,9h-8L290.3,31.8z"/>
			<path clip-path="url(#SVGID_4_)" fill="#022e54" d="M334.4,33.3c0-2.1-0.8-4-2.2-5.5c-1.7-1.8-4.2-2.9-7.9-2.9h-14.7v26.4h5.8
				v-9.7h7.9l5.3,9.7h6.6L329,40.7C332.3,39.3,334.4,36.7,334.4,33.3 M324.9,36.7h-9.5v-6.9h9.1c1.1,0,2.2,0.1,3.2,1.1
				c0.6,0.6,0.9,1.4,0.9,2.3C328.6,35.3,326.9,36.7,324.9,36.7"/>
			<path clip-path="url(#SVGID_4_)" fill="#022e54" d="M364.4,28.7c-2.3-2.4-5.5-3.8-10.4-3.8h-12.4v26.4H354c5,0,7.9-1.3,10.1-3.5
				c2.5-2.4,3.8-5.9,3.8-9.8C368,34.4,366.7,31.1,364.4,28.7 M359.5,44.5c-1.4,1.2-2.6,1.9-5.7,1.9h-6.4V29.9h6.4
				c3.1,0,4.5,0.8,5.9,2.1c1.5,1.5,2.2,3.6,2.2,6.1C361.9,40.8,361,42.9,359.5,44.5"/>
			<path clip-path="url(#SVGID_4_)" fill="#022e54" d="M65.8,20.9c-1.1-1.3-2.5-1.9-4.3-1.9l-0.1,0c-1.6,0-3.2,0.3-4.7,0.6
				c-1.5,0.3-3,0.8-4.9,1.4c-1.8,0.6-3.5,1.2-4.8,1.7c-1.7,0.6-3,1.1-4.2,1.6c-1.1,0.5-2.2,0.9-3.5,1.4c0-0.2-0.1-0.7-0.3-1.1
				c0,0-0.2-0.5-0.4-1c0,0-0.3-0.7-0.6-1.2c0,0-0.3-0.5-0.4-0.9l0.1-0.6l0-0.4c0-0.5,0.1-0.6,0.1-0.6l0-0.2c0.4,0.2,0.5-0.6,0.7-1
				c0.1-0.3,0-0.5,0-0.5c0,0-0.1,0-0.1,0c0,0,0-0.1,0-0.1l0.1-0.2l0.1-0.3c0-0.1,0-0.2,0-0.2l0.1-0.1c0.1-0.1-0.1-0.4-0.1-0.4
				c0,0-0.1-0.3-0.1-0.3c0-0.1-0.1-0.2-0.1-0.2c0.1-0.3-0.1-0.4-0.1-0.4c0-0.1-0.1-0.2-0.1-0.2c0-0.3-0.1-0.3-0.1-0.3l-0.2-0.1
				c-0.1,0-0.3-0.2-0.3-0.2c-0.1-0.2-0.4-0.3-0.4-0.3c-0.3-0.3-0.6-0.1-0.6-0.1c-0.4-0.4-0.7-0.1-0.7-0.1c-0.2,0-0.3,0.1-0.3,0.1
				l-0.2,0c-0.1,0-0.2,0.2-0.2,0.2c-0.1,0-0.3,0.2-0.3,0.2l-0.2,0l-0.1,0.1l-0.1,0.1l-0.2,0.1c-0.1,0-0.2,0.2-0.2,0.2
				c-0.1,0.1-0.3,0.6-0.3,0.6l-0.1,0.2l0,0.2l0.1,0v0.1l-0.1,0.1l0,0.1l0,0.2l0.1,0.1l0,0.1l0,0.3l0,0.1l0,0.1
				c-0.2,0.1-0.2,0.3-0.2,0.3c0,0.4,0.3,1.1,0.3,1.1c0.2,0.3,0.3,0.3,0.3,0.3l0.1,0.8l-0.1,0.4c-0.1,0.3-0.7,0.7-0.7,0.7
				c-0.3,0.2-1.2,0.8-1.6,1.6c-0.5,1-0.6,1.2-0.6,2c0,0.6,0,1.1,0.1,1.6l0.3,1.7l0.1,0.6l-0.8,0.4c-0.4,0.2-0.9,0.4-1.3,0.6L29,30.3
				c-1.1,0.5-2.3,1.1-3.4,1.6l-0.5,0.2c-0.6,0.3-1.2,0.6-1.8,0.9c-0.9,0.5-2.1,1.1-3.3,1.8l-0.2,0.1c-1,0.6-2.1,1.2-3.2,1.9
				c-1.5,1-2.9,2-4.3,3.1c-0.8,0.6-1.5,1.3-2.1,2c-0.6,0.7-0.8,1.5-0.5,2.3c0.1,0.4,0.3,0.8,0.5,1.2c0.1,0.2,0.2,0.5,0.3,0.8
				c0.2,0.6,0.8,1.3,2,1.4c0.2,0,0.5,0,0.7,0c0.4,0,0.7,0,1.2,0c2.3-0.2,4.7-0.6,7.5-1.3c1.8-0.4,3.6-1,5.9-1.7
				c1.4-0.4,2.8-0.9,4.1-1.4l0.9-0.3c0.5-0.2,0.9-0.3,1.4-0.5c0,0.2,0.1,0.4,0.1,0.4s0.4,1.5,0.8,2.3c0,0,0.3,0.6,0.2,1.6L35,47.4
				c0,0-0.9,0.7-1.2,1.4c0,0-0.5,0.6-0.9,0.8l-0.9,0.8L31,51.3l-0.8,0.5L29.8,52l-0.6,0.1c0,0-0.8,0.2-0.7,0.9c0,0,0,0.5,0.4,0.9
				c0,0,0.5,0.5,0.7,1.4c0,0,0.3,1.3,0.6,1.6c0,0,0.6,0.7,0.9,0.7c0,0,0.1,0.1,0.2,0.3c0,0,0.2,0.3,0.7,0.3c0,0,0.3,0,0.3-0.2
				c0,0,0-0.1-0.3-0.4l-0.3-0.5c0,0-0.2-0.4-0.3-0.6c0,0-0.1-0.7,0-1.4c0,0,0.1-0.3,0.1-0.6c0,0,0-0.5,0.1-0.7c0,0,0.5-0.8,0.6-0.9
				c0,0,1.3-1.3,2.4-1.8c0,0,0.2,0.3,0.4,2.2l0.1,2.1l0,0.8l0,0.7c0,0-0.1,0.4-0.2,0.7c0,0-0.1,0.7,0.2,0.8c0,0,0.3,0.2,1.3,0.1
				c1.1-0.1,2.2,0.1,2.2,0.1l1.2,0.1c0,0,0.6,0,1,0c0.4,0,0.3,0,0.3,0s0.5,0,0.5-0.3c0,0,0.1-0.2-0.2-0.2l-0.3-0.1
				c0,0-0.3-0.1-0.5-0.1l-1.8-0.7c0,0-0.7-0.3-0.9-0.4c0,0-0.2-0.3-0.4-0.6c0,0-0.3-0.9-0.4-1.8c0,0-0.1-2,0.1-3
				c0,0,0.1-1.6,0.1-2.1c0,0,0.7-0.6,1.2-0.8l1.4-0.8c0,0,0.7-0.4,0.7-1.4l-0.2-2.7c0,0-0.4-3.1-0.6-3.6l0,0l0.1,0l0.1,0.1
				c0,0,0.1,0.1,0.3,0c0,0,0.1,0,0.2-0.1c0,0,0,0.1,0.3,0.1c0,0,0.2,0,0.2-0.2c0,0,0.2,0.1,0.4,0c0,0,0.1,0,0.1-0.2
				c0,0,0.1,0.1,0.3,0c0,0,0.2-0.1,0.2-0.3c0,0,0-0.1,0-0.1c0.1,0,0.1-0.1,0.2-0.1c0,0.1,0.1,0.1,0.1,0.1c0,0,0,0,0.1,0
				c0,0,0.1,0,0.1-0.1l0-0.1c0.8-0.3,1.9-0.8,2.8-1.1l1-0.4c0.1,0,1.9-0.8,2.1-0.9l0.1,0c0.9-0.4,1.8-0.8,2.8-1.2
				c1.2-0.6,2.5-1.2,3.8-1.8c1.7-0.9,3.3-1.7,4.7-2.5c1.6-0.8,3-1.9,4.5-3.2c1.2-1.1,1.9-2.3,2.1-3.6C66.8,22.9,66.5,21.8,65.8,20.9
				 M32.3,41.8l-0.9,0.3c-1.3,0.5-2.7,1-4.1,1.4c-2.2,0.7-4.1,1.2-5.8,1.7c-2.7,0.7-5.1,1.1-7.3,1.2c-0.7,0-1.2,0.1-1.7,0
				c-0.7,0-0.9-0.4-1-0.6c-0.1-0.3-0.2-0.5-0.3-0.8c-0.2-0.4-0.3-0.8-0.5-1.1c-0.1-0.4-0.1-0.7,0.3-1.1c0.6-0.6,1.2-1.3,2-1.9
				c1.3-1,2.8-2,4.2-3c1-0.7,2.1-1.3,3.1-1.9l0.2-0.1c1.2-0.7,2.4-1.3,3.3-1.8c0.6-0.3,1.2-0.6,1.8-0.9l0.5-0.2
				c1.1-0.5,2.3-1.1,3.4-1.6l0.6-0.3c0.4-0.2,0.8-0.4,1.2-0.6l1.1-0.5c1-0.5,2.2-1,3.3-1.5c0.1,0,0.1-0.1,0.2-0.1l0.8,2.9
				c0,0,0.4,1.5,0.9,2.3c0,0,0.6,1.5,0.9,1.9l1,1.9c0,0,0,0.5,0,0.8c0,0,0,0.4,0,0.8c-1.3,0.5-2.5,1-3.6,1.4l-0.4,0.1
				C34.9,40.9,33.6,41.4,32.3,41.8 M65.5,24.2c-0.1,1.1-0.7,2-1.7,2.9c-1.4,1.2-2.8,2.2-4.3,3.1c-1.4,0.8-3,1.6-4.7,2.4
				c-1.3,0.6-2.6,1.2-3.8,1.8c-0.9,0.4-1.9,0.8-2.8,1.2l0,0c-0.8,0.3-2,0.9-2.1,0.9l-1,0.4c-0.7,0.3-1.7,0.7-2.5,1
				c-0.1-0.1-0.1-0.1-0.1-0.1l-0.7-0.6l-0.3-0.9l-0.9-2.4c-0.1-0.9-0.6-2.6-0.6-2.6c-0.2-0.6-0.6-2-0.6-2c0-0.4-0.2-1.6-0.2-2.2
				c1.4-0.6,2.8-1.2,4.1-1.7c1.2-0.5,2.5-1,4.2-1.6c1.3-0.5,3-1.1,4.8-1.7c1.8-0.6,3.3-1,4.7-1.4c1.4-0.3,2.9-0.6,4.5-0.6h0.1
				c1.4,0,2.6,0.5,3.5,1.5C65.4,22.3,65.6,23.1,65.5,24.2"/>
		</g>
	</g>
</g>
<g>
</g>
<g>
</g>
<g>
</g>
<g>
</g>
<g>
</g>
<g>
</g>
</svg>
